<svg width="16" height="16" viewBox="0 0 16 16" fill="none" xmlns="http://www.w3.org/2000/svg">
<circle cx="8" cy="8" r="8" fill="#4B7BEC"/>
<path d="M4.8418 12V4H8.31055C8.91992 4 9.43164 4.08203 9.8457 4.24609C10.2624 4.41016 10.5762 4.64193 10.7871 4.94141C11.0007 5.24089 11.1074 5.59375 11.1074 6C11.1074 6.29427 11.0423 6.5625 10.9121 6.80469C10.7845 7.04687 10.6048 7.25 10.373 7.41406C10.1413 7.57552 9.87044 7.6875 9.56055 7.75V7.82812C9.9043 7.84115 10.2168 7.92839 10.498 8.08984C10.7793 8.2487 11.0033 8.46875 11.1699 8.75C11.3366 9.02865 11.4199 9.35677 11.4199 9.73437C11.4199 10.1719 11.3053 10.5612 11.0762 10.9023C10.8496 11.2435 10.5267 11.5117 10.1074 11.707C9.68815 11.9023 9.18815 12 8.60742 12H4.8418ZM7.01367 10.2656H8.0293C8.39388 10.2656 8.66732 10.1979 8.84961 10.0625C9.0319 9.92448 9.12305 9.72135 9.12305 9.45312C9.12305 9.26562 9.08008 9.10677 8.99414 8.97656C8.9082 8.84635 8.78581 8.7474 8.62695 8.67969C8.4707 8.61198 8.2819 8.57812 8.06055 8.57812H7.01367V10.2656ZM7.01367 7.23437H7.9043C8.0944 7.23437 8.26237 7.20443 8.4082 7.14453C8.55404 7.08464 8.66732 6.9987 8.74805 6.88672C8.83138 6.77214 8.87305 6.63281 8.87305 6.46875C8.87305 6.22135 8.78451 6.03255 8.60742 5.90234C8.43034 5.76953 8.20638 5.70312 7.93555 5.70312H7.01367V7.23437Z" fill="white"/>
</svg>
